<svg width="363" height="364" viewBox="0 0 363 364" fill="none" xmlns="http://www.w3.org/2000/svg">
<path d="M181.97 363.955C81.6313 363.955 0 282.321 0 181.978C0 81.6361 81.6313 0 181.97 0C189.029 0 194.752 5.72271 194.752 12.7836C194.752 19.8424 189.029 25.5672 181.97 25.5672C95.7266 25.5672 25.5643 95.7318 25.5643 181.978C25.5643 268.223 95.7286 338.39 181.97 338.39C189.029 338.39 194.754 344.112 194.754 351.171C194.754 358.232 189.029 363.955 181.97 363.955Z" fill="url(#paint0_linear_400_669)"/>
<path d="M180.897 363.955C173.838 363.955 168.114 358.232 168.114 351.171C168.114 344.112 173.838 338.39 180.897 338.39C267.139 338.39 337.303 268.223 337.303 181.978C337.303 95.7318 267.139 25.5652 180.897 25.5672C173.836 25.5672 168.114 19.8424 168.114 12.7836C168.114 5.72271 173.836 0 180.897 0C281.234 0 362.867 81.6341 362.867 181.978C362.867 282.319 281.236 363.955 180.897 363.955Z" fill="url(#paint1_linear_400_669)"/>
<path d="M175.438 302.523C108.97 302.523 54.897 248.447 54.897 181.979C54.897 115.51 108.97 61.4316 175.438 61.4316C182.496 61.4316 188.219 67.1563 188.219 74.2152C188.219 81.2741 182.496 86.9968 175.438 86.9988C123.067 86.9988 80.4613 129.606 80.4613 181.979C80.4613 234.349 123.069 276.958 175.438 276.958C182.496 276.958 188.221 282.681 188.221 289.74C188.221 296.801 182.496 302.523 175.438 302.523Z" fill="url(#paint2_linear_400_669)"/>
<path d="M175.438 243.471C141.531 243.471 113.946 215.886 113.946 181.978C113.946 148.072 141.531 120.484 175.438 120.484C182.496 120.484 188.221 126.209 188.221 133.268C188.221 140.327 182.496 146.051 175.438 146.051C155.628 146.051 139.51 162.167 139.51 181.978C139.51 201.788 155.628 217.906 175.438 217.906C182.496 217.906 188.221 223.629 188.221 230.688C188.221 237.749 182.496 243.471 175.438 243.471Z" fill="url(#paint3_linear_400_669)"/>
<path d="M216.295 307.39C209.236 307.39 203.512 301.667 203.512 294.606V75.1273C203.512 68.0665 209.234 62.3438 216.295 62.3438C223.354 62.3438 229.076 68.0665 229.076 75.1273L229.078 294.606C229.078 301.667 223.354 307.39 216.295 307.39Z" fill="url(#paint4_linear_400_669)"/>
<defs>
<linearGradient id="paint0_linear_400_669" x1="298.127" y1="62.3437" x2="54.8969" y2="302.523" gradientUnits="userSpaceOnUse">
<stop stop-color="#E9E8E8"/>
<stop offset="0.49" stop-color="#ACDDEE"/>
<stop offset="1" stop-color="#00BEFF"/>
</linearGradient>
<linearGradient id="paint1_linear_400_669" x1="298.127" y1="62.3437" x2="54.897" y2="302.523" gradientUnits="userSpaceOnUse">
<stop stop-color="#E9E8E8"/>
<stop offset="0.49" stop-color="#ACDDEE"/>
<stop offset="1" stop-color="#00BEFF"/>
</linearGradient>
<linearGradient id="paint2_linear_400_669" x1="298.127" y1="62.3438" x2="54.897" y2="302.523" gradientUnits="userSpaceOnUse">
<stop stop-color="#E9E8E8"/>
<stop offset="0.49" stop-color="#ACDDEE"/>
<stop offset="1" stop-color="#00BEFF"/>
</linearGradient>
<linearGradient id="paint3_linear_400_669" x1="298.127" y1="62.3437" x2="54.8969" y2="302.523" gradientUnits="userSpaceOnUse">
<stop stop-color="#E9E8E8"/>
<stop offset="0.49" stop-color="#ACDDEE"/>
<stop offset="1" stop-color="#00BEFF"/>
</linearGradient>
<linearGradient id="paint4_linear_400_669" x1="298.127" y1="62.3438" x2="54.897" y2="302.523" gradientUnits="userSpaceOnUse">
<stop stop-color="#E9E8E8"/>
<stop offset="0.49" stop-color="#ACDDEE"/>
<stop offset="1" stop-color="#00BEFF"/>
</linearGradient>
</defs>
</svg>
