<svg width="123" height="43" viewBox="0 0 123 43" fill="none" xmlns="http://www.w3.org/2000/svg">
<path d="M42.8678 21.5C42.8678 9.70541 33.321 0.105781 21.5529 0C21.5529 0 21.5264 0 21.5 0H21.4471H21.3942C21.3942 0 21.3678 0 21.3413 0C9.54674 0.105781 0 9.70541 0 21.5C0 33.2946 9.54674 42.8942 21.3413 43C21.3413 43 21.3678 43 21.3942 43H21.4471H21.5C21.5 43 21.5264 43 21.5529 43C33.321 42.9207 42.8942 33.2946 42.8942 21.5H42.8678ZM21.4207 39.9852C11.2657 39.9588 3.01476 31.6814 3.01476 21.5C3.01476 11.3186 11.2657 3.06765 21.4207 3.01476C31.5756 3.04121 39.8266 11.3186 39.8266 21.5C39.8266 31.6814 31.5756 39.9323 21.4207 39.9852Z" fill="#6D2FF4"/>
<path d="M7.11377 21.5C7.11377 29.3014 13.4342 35.6747 21.2091 35.7276V32.7128C15.0738 32.6335 10.1285 27.6353 10.1285 21.5C10.1285 15.3647 15.0738 10.3665 21.2091 10.2872V7.27245C13.4077 7.35178 7.11377 13.6986 7.11377 21.5Z" fill="#6D2FF4"/>
<path d="M14.0955 21.5C14.0955 25.4668 17.2689 28.6931 21.2092 28.7724V25.7577C18.9349 25.6784 17.1102 23.8007 17.1102 21.5264C17.1102 19.2522 18.9349 17.3745 21.2092 17.2952V14.2804C17.2689 14.3598 14.0955 17.5861 14.0955 21.5529V21.5Z" fill="#6D2FF4"/>
<path d="M27.2916 7.27245H24.2769V35.754H27.2916V7.27245Z" fill="#6D2FF4"/>
<path d="M49.5584 6.76999V19.9926H47.4692V6.76999H49.5584Z" fill="#6D2FF4"/>
<path d="M59.7396 11.4772C60.4536 12.1913 60.7974 13.0904 60.7974 14.2276V19.9926H58.8405V14.492C58.8405 12.9846 57.9149 11.9797 56.5133 11.9797C55.1117 11.9797 54.1332 12.9846 54.1332 14.492V19.9926H52.1763V10.6045H54.1332V12.0061C54.7679 10.9483 55.7464 10.4194 57.0951 10.4194C58.4438 10.4194 59.052 10.7632 59.7661 11.4772H59.7396Z" fill="#6D2FF4"/>
<path d="M69.2073 11.2128C69.8949 11.7417 70.2386 12.4293 70.2386 13.2755H68.4139C68.361 12.4293 67.6206 11.8739 66.5363 11.8739C65.4521 11.8739 64.8174 12.3764 64.8174 13.064C64.8967 13.6458 65.0554 13.9102 65.6372 14.1218C66.0603 14.2805 66.1661 14.3069 66.7743 14.4127C67.6735 14.5978 67.7528 14.5714 68.6519 14.8887C69.0486 15.0474 69.366 15.206 69.604 15.3912C70.0535 15.7614 70.4767 16.449 70.4767 17.3217C70.4767 18.1944 70.1064 18.8555 69.4188 19.3844C68.7048 19.9133 67.7528 20.1778 66.6421 20.1778C65.5314 20.1778 64.5794 19.9133 63.8653 19.3579C63.1513 18.8026 62.7811 18.0886 62.7546 17.2423H64.6587C64.6587 18.1415 65.5314 18.7233 66.695 18.7233C67.8586 18.7233 68.5726 18.1944 68.5726 17.4274C68.5726 16.6605 68.4139 16.6341 67.9379 16.449C67.4883 16.2639 67.2768 16.2374 66.5628 16.1052C65.8223 15.9994 65.4256 15.9201 64.6851 15.6556C64.3149 15.5234 63.9976 15.3383 63.7596 15.1531C63.31 14.7829 62.9133 14.0953 62.9133 13.2755C62.9133 11.583 64.3942 10.4459 66.5892 10.4459C68.7842 10.4459 68.5461 10.7103 69.2337 11.2393L69.2073 11.2128Z" fill="#6D2FF4"/>
<path d="M77.4051 10.6046V12.2442H75.2895V19.9926H73.3325V12.2442H71.5872V10.6046H73.3325V8.1716H75.2895V10.6046H77.4051Z" fill="#6D2FF4"/>
<path d="M86.185 10.6046H88.142V19.9926H86.185V18.6439C85.3123 19.6488 84.1487 20.1778 82.7736 20.1778C81.3984 20.1778 80.3406 19.7282 79.4944 18.8026C78.6217 17.877 78.1721 16.7134 78.1721 15.3118C78.1721 13.9102 78.6217 12.7466 79.4944 11.821C80.3406 10.8955 81.4513 10.4459 82.7736 10.4459C84.0959 10.4459 85.3123 10.9484 86.185 11.9797V10.631V10.6046ZM85.3388 17.5597C85.8941 16.9779 86.185 16.211 86.185 15.2854C86.185 14.3598 85.8941 13.5929 85.3388 13.0111C84.757 12.4293 84.043 12.1119 83.1703 12.1119C82.2976 12.1119 81.5836 12.4293 81.0282 13.0111C80.4464 13.5929 80.182 14.3598 80.182 15.2854C80.182 16.211 80.4729 16.9779 81.0282 17.5597C81.5836 18.1415 82.2976 18.4588 83.1703 18.4588C84.043 18.4588 84.7834 18.1415 85.3388 17.5597Z" fill="#6D2FF4"/>
<path d="M98.1117 11.4772C98.8257 12.1913 99.1695 13.0904 99.1695 14.2276V19.9926H97.2125V14.492C97.2125 12.9846 96.287 11.9797 94.8854 11.9797C93.4838 11.9797 92.5053 12.9846 92.5053 14.492V19.9926H90.5483V10.6045H92.5053V12.0061C93.14 10.9483 94.1185 10.4194 95.4672 10.4194C96.8159 10.4194 97.4241 10.7632 98.1381 11.4772H98.1117Z" fill="#6D2FF4"/>
<path d="M106.442 10.6046V12.2442H104.327V19.9926H102.37V12.2442H100.624V10.6046H102.37V8.1716H104.327V10.6046H106.442Z" fill="#6D2FF4"/>
<path d="M60.401 30.703C60.163 32.3426 59.3961 33.6913 58.1796 34.6962C56.9366 35.7011 55.4557 36.23 53.6839 36.23C51.912 36.23 50.0609 35.5689 48.7651 34.2995C47.4692 33.0301 46.8081 31.3905 46.8081 29.4336C46.8081 27.4766 47.4692 25.8635 48.7651 24.5941C50.0344 23.3247 51.674 22.69 53.6839 22.69C55.6937 22.69 56.9366 23.1925 58.1796 24.1974C59.4225 25.2023 60.163 26.5511 60.401 28.1642H58.2589C57.7829 26.0222 56.0111 24.5941 53.6574 24.5941C51.3038 24.5941 51.1451 25.0437 50.246 25.9428C49.3469 26.8684 48.8973 28.032 48.8973 29.4336C48.8973 30.8352 49.3469 31.9988 50.246 32.9244C51.1451 33.8499 52.2823 34.326 53.6574 34.326C55.0326 34.326 55.8259 33.9822 56.6457 33.321C57.4655 32.6599 57.9945 31.7872 58.2589 30.7294H60.401V30.703Z" fill="#6D2FF4"/>
<path d="M66.8007 26.4982C68.2552 26.4982 69.4453 26.9477 70.3973 27.8733C71.3229 28.7989 71.7989 29.9625 71.7989 31.3641C71.7989 32.7657 71.3229 33.9293 70.3973 34.8549C69.4717 35.7804 68.2552 36.23 66.8007 36.23C65.3462 36.23 64.1562 35.7804 63.2042 34.8549C62.2521 33.9293 61.7761 32.7657 61.7761 31.3641C61.7761 29.9625 62.2521 28.7989 63.2042 27.8733C64.1298 26.9477 65.3462 26.4982 66.8007 26.4982ZM64.6322 29.0898C64.0504 29.6716 63.786 30.4385 63.786 31.3641C63.786 32.2897 64.0769 33.0566 64.6322 33.6384C65.1876 34.2202 65.9016 34.5375 66.7743 34.5375C67.647 34.5375 68.3874 34.2202 68.9428 33.6384C69.4981 33.0566 69.789 32.2897 69.789 31.3641C69.789 30.4385 69.4981 29.6716 68.9428 29.0898C68.361 28.508 67.647 28.1907 66.7743 28.1907C65.9016 28.1907 65.1876 28.508 64.6322 29.0898Z" fill="#6D2FF4"/>
<path d="M81.2396 27.5295C81.9536 28.2435 82.2974 29.1427 82.2974 30.2798V36.0449H80.3405V30.5443C80.3405 29.0369 79.4149 28.032 78.0133 28.032C76.6117 28.032 75.6332 29.0369 75.6332 30.5443V36.0449H73.6763V26.6568H75.6332V28.0584C76.2679 27.0006 77.2464 26.4717 78.5951 26.4717C79.9438 26.4717 80.552 26.8155 81.2661 27.5295H81.2396Z" fill="#6D2FF4"/>
<path d="M92.1617 27.5295C92.8758 28.2435 93.2195 29.1427 93.2195 30.2798V36.0449H91.2626V30.5443C91.2626 29.0369 90.337 28.032 88.9354 28.032C87.5338 28.032 86.5553 29.0369 86.5553 30.5443V36.0449H84.5984V26.6568H86.5553V28.0584C87.19 27.0006 88.1685 26.4717 89.5172 26.4717C90.8659 26.4717 91.4742 26.8155 92.1882 27.5295H92.1617Z" fill="#6D2FF4"/>
<path d="M104.908 31.9723H96.8689C97.1069 33.559 98.3763 34.6168 99.9894 34.6168C101.603 34.6168 102.475 33.797 102.846 32.6599H104.829C104.564 33.7177 103.983 34.5375 103.084 35.2251C102.184 35.8862 101.153 36.23 99.9894 36.23C98.8259 36.23 97.3449 35.7804 96.3929 34.8549C95.4409 33.9293 94.9648 32.7657 94.9648 31.3641C94.9648 29.9625 95.4409 28.7989 96.3929 27.8733C97.3185 26.9477 98.535 26.4982 99.9894 26.4982C101.444 26.4982 102.634 26.9477 103.586 27.8733C104.512 28.7989 104.988 29.9625 104.988 31.3905C104.988 31.6021 104.988 31.7872 104.935 31.9723H104.908ZM99.9894 28.0849C99.2225 28.0849 98.5878 28.2964 98.0325 28.746C97.4771 29.1956 97.1069 29.7509 96.9482 30.4649H103.11C102.951 29.7509 102.581 29.1956 101.999 28.746C101.417 28.2964 100.756 28.0849 99.9894 28.0849Z" fill="#6D2FF4"/>
<path d="M116.147 32.1574C116.015 33.3475 115.486 34.326 114.561 35.0664C113.635 35.8333 112.524 36.2036 111.255 36.2036C109.986 36.2036 108.611 35.754 107.659 34.8284C106.706 33.9028 106.23 32.7392 106.23 31.3376C106.23 29.936 106.706 28.7724 107.659 27.8469C108.584 26.9213 109.801 26.4717 111.255 26.4717C112.71 26.4717 113.635 26.8419 114.561 27.6089C115.486 28.4022 116.015 29.3542 116.147 30.5178H114.164C113.873 29.1427 112.683 28.1378 111.255 28.1378C109.827 28.1378 109.642 28.4551 109.087 29.0369C108.505 29.6187 108.24 30.3856 108.24 31.3112C108.24 32.2368 108.531 33.0037 109.087 33.5855C109.642 34.1673 110.356 34.4846 111.255 34.4846C112.71 34.4846 113.9 33.5062 114.164 32.1046H116.121L116.147 32.1574Z" fill="#6D2FF4"/>
<path d="M122.759 26.6568V28.2964H120.643V36.0449H118.686V28.2964H116.941V26.6568H118.686V24.2239H120.643V26.6568H122.759Z" fill="#6D2FF4"/>
</svg>
