<?xml version="1.0" encoding="UTF-8"?>
<svg id="Layer_2" data-name="Layer 2" xmlns="http://www.w3.org/2000/svg" xmlns:xlink="http://www.w3.org/1999/xlink" viewBox="0 0 900.5 225.4">
  <defs>
    <style>
      .cls-1 {
        fill: url(#linear-gradient);
      }

      .cls-1, .cls-2, .cls-3, .cls-4, .cls-5, .cls-6 {
        stroke-width: 0px;
      }

      .cls-3 {
        fill: none;
      }

      .cls-4 {
        fill: #fff;
      }

      .cls-5 {
        fill: #fabc2d;
      }

      .cls-6 {
        fill: url(#linear-gradient-2);
      }
    </style>
    <linearGradient id="linear-gradient" x1="135.4" y1="112.7" x2="184.4" y2="112.7" gradientUnits="userSpaceOnUse">
      <stop offset="0" stop-color="#fabc2d"/>
      <stop offset="1" stop-color="#f05840"/>
    </linearGradient>
    <linearGradient id="linear-gradient-2" x1="100.7" y1="112.7" x2="131.9" y2="112.7" xlink:href="#linear-gradient"/>
  </defs>
  <g id="Layer_1-2" data-name="Layer 1">
    <g>
      <g>
        <polygon class="cls-4" points="75.3 93.2 41.1 73.5 6.9 93.2 6.9 132.8 40.9 152.4 75.3 132.5 75.3 93.2"/>
        <polygon class="cls-4" points="150.7 93.2 116.5 73.5 82.2 93.2 82.2 132.5 116.5 152.2 150.7 132.5 150.7 93.2"/>
        <polygon class="cls-4" points="44.6 158.5 44.6 197.7 78.8 217.5 113 197.7 113 158.5 78.8 138.7 44.6 158.5"/>
        <polygon class="cls-4" points="113 67.2 113 27.7 78.8 8 44.6 27.7 44.6 67.2 78.8 87 113 67.2"/>
        <polygon class="cls-4" points="119.9 158.5 119.9 197.7 154.1 217.5 188.4 197.7 188.4 158.5 154.1 138.7 119.9 158.5"/>
        <polygon class="cls-4" points="188.4 67.2 188.4 27.7 154.1 8 119.9 27.7 119.9 67.2 154.1 87 188.4 67.2"/>
        <polygon class="cls-4" points="157.6 93.2 157.6 132.5 192.1 152.4 226 132.8 226 93.2 191.8 73.5 157.6 93.2"/>
        <path class="cls-2" d="m195.3,23.7L154.1,0l-37.7,21.7L78.8,0l-41.1,23.7v43.8L0,89.3v47.5l37.7,21.7v43.2l41.1,23.7,37.7-21.7,37.7,21.7,41.1-23.7v-43.2l37.7-21.7v-47.5l-37.7-21.7V23.7Zm-75.3,4l34.2-19.8,34.2,19.8v39.5l-34.2,19.8-34.2-19.8V27.7Zm-75.3,0L78.8,8l34.2,19.8v39.5l-34.2,19.8-34.2-19.8V27.7ZM6.9,132.8v-39.5l34.2-19.8,34.2,19.8v39.2l-34.5,19.9-34-19.6Zm106.1,65l-34.2,19.8-34.2-19.8v-39.2l34.2-19.8,34.2,19.8v39.2Zm-30.8-65.2v-39.2l34.2-19.8,34.2,19.8v39.2l-34.2,19.8-34.2-19.8Zm106.1,65.2l-34.2,19.8-34.2-19.8v-39.2l34.2-19.8,34.2,19.8v39.2Zm37.7-104.5v39.5l-34,19.6-34.5-19.9v-39.2l34.2-19.8,34.2,19.8Z"/>
      </g>
      <g>
        <polygon class="cls-3" points="95.9 106.4 95.8 106.3 95.8 119.1 95.9 119.1 95.9 106.4"/>
        <polygon class="cls-1" points="184.4 112.7 172.1 98.8 147.8 91.6 139.5 105.5 135.4 112.7 139.5 119.9 147.8 133.9 172.1 126.6 184.4 112.7"/>
        <polygon class="cls-5" points="73.9 106.4 73.9 119.1 81.7 123.6 81.7 101.8 73.9 106.4"/>
        <polygon class="cls-2" points="136.7 143.3 136.7 142.8 127.3 127 135.4 141 136.7 143.3"/>
        <polygon class="cls-2" points="127.3 98.4 136.7 82.6 136.7 82.2 135.4 84.4 127.3 98.4"/>
        <polygon class="cls-2" points="139.5 105.5 135.3 112.7 139.5 119.9 135.4 112.7 139.5 105.5"/>
        <polygon class="cls-2" points="147.6 133.9 147.8 133.9 139.5 119.9 147.6 133.9"/>
        <polygon class="cls-2" points="127.3 127 123.1 119.8 119.1 112.7 123.1 105.7 127.3 98.4 118.8 112.7 127.3 127"/>
        <polygon class="cls-2" points="147.6 91.5 139.5 105.5 147.8 91.6 147.6 91.5"/>
        <polygon class="cls-3" points="136.7 59 116.3 47.2 95.8 59 116.3 47.2 136.7 59"/>
        <path class="cls-2" d="m195,103.4l-12.3-13.9-2.7-3-3.9-1.2-24.5-7.3-.8-.3h0v-26.8l-7.1-4.1-20.4-11.8-7.1-4.1-7.1,4.1-20.4,11.8-7.1,4.1v30.9h0s-5.5,3.2-5.5,3.2l-11,6.4-8.7,5v32.8l8.7,5,11,6.4,5.5,3.2v30.9l7.1,4.1,20.4,11.8,7.1,4.1,7.1-4.1,20.4-11.8,7.1-4.1v-26.8l.8-.3,24.5-7.3,3.9-1.2,2.7-3,12.3-13.9,8.2-9.3-8.2-9.3Zm-113.3-1.6v21.8h0s-7.8-4.5-7.8-4.5v-12.7l7.8-4.5h0Zm55,41.4v23.1l-20.4,11.8-20.4-11.8v-27.2h0V59l20.4-11.8,20.4,11.8v23.1h0v.5l-9.4,15.8-4.2,7.3-4.1,7.1,4.1,7.1,4.2,7.2,9.4,15.8v.5h0s0,0,0,0Zm17.4-25.3l7.3,11.8-13.6,4.1h-.2c0,0-8.1-14-8.1-14l-4.2-7.1,4.3-7.2,8.1-14h.2c0,0,13.6,4.1,13.6,4.1l-7.3,11.8-3.3,5.3,3.3,5.3Zm18.3,8.3l-8.4-13.6,8.4-13.6,12,13.6-12,13.6Z"/>
        <polygon class="cls-5" points="116.3 47.2 95.8 59 95.8 79.3 95.8 86.2 95.8 106.3 95.8 119.1 95.8 139.2 95.8 139.2 95.8 143.7 95.8 166.4 116.3 178.2 136.7 166.4 136.7 143.3 135.4 141 127.3 127 118.8 112.7 127.3 98.4 135.4 84.4 136.7 82.2 136.7 82.2 136.7 59 116.3 47.2"/>
        <polygon class="cls-6" points="100.7 163.6 100.7 61.8 116.3 52.8 131.9 61.8 131.9 80.9 123.2 96 113.2 112.7 123.2 129.5 131.9 144.6 131.9 163.6 116.3 172.6 100.7 163.6"/>
      </g>
      <g>
        <path class="cls-4" d="m259.7,166.6V57.2h43.7c8,0,14.7,1.2,20.1,3.6,5.4,2.4,9.4,5.7,12.1,9.9,2.7,4.2,4.1,9.1,4.1,14.5s-.9,8-2.6,11.2c-1.7,3.2-4.1,5.9-7,7.9-3,2.1-6.3,3.5-10.2,4.3v1.1c4.2.2,8.1,1.4,11.7,3.5,3.7,2.2,6.6,5.2,8.9,9.1,2.3,3.9,3.4,8.5,3.4,13.9s-1.4,10.9-4.3,15.5c-2.9,4.6-7.1,8.2-12.7,10.8-5.6,2.6-12.5,3.9-20.7,3.9h-46.7Zm23-63.6h17.2c3.2,0,6-.6,8.5-1.7,2.5-1.1,4.4-2.7,5.8-4.8,1.4-2.1,2.1-4.6,2.1-7.4s-1.4-7.1-4.1-9.5c-2.8-2.4-6.7-3.6-11.9-3.6h-17.6v27.1Zm0,44.7h18.9c6.4,0,11.1-1.2,14.1-3.7,3-2.5,4.4-5.8,4.4-9.9s-.7-5.7-2.2-8c-1.4-2.3-3.5-4.1-6.2-5.5-2.7-1.3-5.9-2-9.6-2h-19.5v29.1Z"/>
        <path class="cls-4" d="m522.5,166.6v-13.6l40.1-49.7v-.6h-38.8v-18.2h66.1v14.9l-37.7,48.4v.6h39v18.2h-68.8Z"/>
        <path class="cls-4" d="m778.1,168.2c-8.4,0-15.6-1.8-21.6-5.4-6-3.6-10.6-8.6-13.9-14.9s-4.8-13.7-4.8-22,1.6-15.8,4.9-22.2c3.3-6.4,7.9-11.3,13.9-14.9,6-3.6,13.2-5.4,21.5-5.4s13.4,1.3,18.8,3.9c5.4,2.6,9.6,6.2,12.7,10.9,3.1,4.7,4.8,10.2,5.1,16.6h-21.4c-.4-2.7-1.2-5.1-2.5-7.2-1.3-2.1-3-3.6-5.1-4.8-2.1-1.1-4.6-1.7-7.3-1.7s-6.6.9-9.2,2.8c-2.6,1.9-4.6,4.6-6.1,8.3-1.4,3.6-2.2,8.1-2.2,13.2s.7,9.6,2.2,13.4c1.4,3.7,3.5,6.6,6.1,8.5,2.6,2,5.7,2.9,9.2,2.9s7.2-1.2,9.9-3.7c2.7-2.5,4.4-5.9,5-10.2h21.4c-.3,6.3-2,11.8-5.1,16.6-3,4.8-7.2,8.5-12.5,11.2-5.3,2.7-11.7,4-19,4Z"/>
        <path class="cls-4" d="m896.9,97.8c-2.4-4.6-5.7-8.1-9.9-10.6-4.3-2.5-9.2-3.7-14.9-3.7s-11.4,1.4-15.5,4.2c-4.1,2.8-7.1,6.6-9,11.4h-1v-41.9l-21.9,9.9v99.4h22.7v-47.4c0-3.5.7-6.5,2-9,1.3-2.5,3.2-4.4,5.5-5.8,2.3-1.3,5.1-2,8.2-2,4.6,0,8.3,1.4,10.8,4.3,2.6,2.8,3.9,6.8,3.9,11.8v48.1h22.8v-52.2c0-6.5-1.2-12-3.6-16.6Z"/>
        <path class="cls-4" d="m632,142.1v-40.4s15.5,0,15.5,0v-17.2h-15.5v-19.5l-22.7,10.3v9.2h-11.2v17.2h11.2v43.1c0,.3,0,.5,0,.7h0v8.2c0,8,6.5,14.5,14.5,14.5h23.7v-22.7h-12.1c-1.9,0-3.4-1.5-3.4-3.4Z"/>
        <path class="cls-4" d="m428.6,125.2c0-7-1-13.1-2.9-18.3-2-5.2-4.7-9.5-8.2-13-3.5-3.4-7.6-6-12.3-7.8-4.7-1.7-9.8-2.6-15.2-2.6-8,0-15,1.8-21,5.4-5.9,3.6-10.5,8.5-13.8,14.9-3.3,6.4-4.9,13.7-4.9,22.2s1.6,16.2,4.9,22.5c3.3,6.3,7.9,11.2,14.1,14.6,6.1,3.4,13.4,5.1,21.8,5.1s12.7-1,17.8-3.1c5.1-2.1,9.3-5,12.6-8.7,3.3-3.7,5.4-8.1,6.4-13.2h-21.6c-.7,1.4-1.6,2.7-2.7,3.7-1.5,1.4-3.3,2.5-5.3,3.2-2.1.7-4.4,1.1-6.9,1.1-3.7,0-6.9-.8-9.7-2.5-2.8-1.7-5-4.1-6.6-7.3-1.4-2.8-2.2-6.2-2.3-10.1h55.9v-6.2Zm-55.8-7.9c.3-2.7.9-5.1,1.9-7.3,1.4-2.9,3.3-5.3,5.9-7,2.6-1.7,5.7-2.6,9.4-2.6s6.8.8,9.4,2.5c2.5,1.7,4.4,4.1,5.7,7.2.9,2.1,1.4,4.5,1.7,7.2h-34Z"/>
        <path class="cls-4" d="m513.2,125.2c0-7-1-13.1-2.9-18.3-2-5.2-4.7-9.5-8.2-13-3.5-3.4-7.6-6-12.3-7.8-4.7-1.7-9.8-2.6-15.2-2.6-8,0-15,1.8-21,5.4-5.9,3.6-10.5,8.5-13.8,14.9-3.3,6.4-4.9,13.7-4.9,22.2s.9,12.1,2.7,17.2c.6,1.8,1.4,3.6,2.2,5.2,3.3,6.3,7.9,11.2,14.1,14.6,6.1,3.4,13.4,5.1,21.8,5.1s12.7-1,17.8-3.1c5.1-2.1,9.3-5,12.6-8.7,3.3-3.7,5.4-8.1,6.4-13.2h-21.6c-.7,1.4-1.6,2.7-2.7,3.7-1.5,1.4-3.3,2.5-5.3,3.2-2.1.7-4.4,1.1-6.9,1.1-3.7,0-6.9-.8-9.7-2.5-2.3-1.4-4.1-3.2-5.6-5.5-.3-.6-.7-1.1-1-1.7-1.4-2.8-2.2-6.2-2.3-10.1h55.9v-6.2Zm-55.8-7.9c.3-2.7.9-5.1,1.9-7.3,1.4-2.9,3.3-5.3,5.9-7,2.6-1.7,5.7-2.6,9.4-2.6s6.8.8,9.4,2.5c2.5,1.7,4.4,4.1,5.7,7.2.9,2.1,1.4,4.5,1.7,7.2h-34Z"/>
        <path class="cls-4" d="m731.5,125.2c0-7-1-13.1-2.9-18.3-2-5.2-4.7-9.5-8.2-13-3.5-3.4-7.6-6-12.3-7.8-4.7-1.7-9.8-2.6-15.2-2.6-8,0-15,1.8-21,5.4-5.9,3.6-10.5,8.5-13.8,14.9-3.3,6.4-4.9,13.7-4.9,22.2s.9,12.1,2.7,17.2c.6,1.8,1.4,3.6,2.2,5.2,3.3,6.3,7.9,11.2,14.1,14.6,6.1,3.4,13.4,5.1,21.8,5.1s12.7-1,17.8-3.1c5.1-2.1,9.3-5,12.6-8.7,3.3-3.7,5.4-8.1,6.4-13.2h-21.6c-.7,1.4-1.6,2.7-2.7,3.7-1.5,1.4-3.3,2.5-5.3,3.2-2.1.7-4.4,1.1-6.9,1.1-3.7,0-6.9-.8-9.7-2.5-2.3-1.4-4.1-3.2-5.6-5.5-.3-.6-.7-1.1-1-1.7-1.4-2.8-2.2-6.2-2.3-10.1h55.9v-6.2Zm-55.8-7.9c.3-2.7.9-5.1,1.9-7.3,1.4-2.9,3.3-5.3,5.9-7,2.6-1.7,5.7-2.6,9.4-2.6s6.8.8,9.4,2.5c2.5,1.7,4.4,4.1,5.7,7.2.9,2.1,1.4,4.5,1.7,7.2h-34Z"/>
      </g>
    </g>
  </g>
</svg>